<svg width="197" height="192" viewBox="0 0 197 192" fill="none" xmlns="http://www.w3.org/2000/svg">
<circle cx="195.206" cy="190.206" r="1.79439" transform="rotate(-180 195.206 190.206)" fill="#91AD9E"/>
<ellipse cx="195.206" cy="152.524" rx="1.79439" ry="1.79439" transform="rotate(-180 195.206 152.524)" fill="#91AD9E"/>
<ellipse cx="195.206" cy="114.84" rx="1.79439" ry="1.7944" transform="rotate(-180 195.206 114.84)" fill="#91AD9E"/>
<ellipse cx="195.206" cy="77.1587" rx="1.79439" ry="1.79439" transform="rotate(-180 195.206 77.1587)" fill="#91AD9E"/>
<ellipse cx="195.206" cy="39.4771" rx="1.79439" ry="1.7944" transform="rotate(-180 195.206 39.4771)" fill="#91AD9E"/>
<ellipse cx="195.206" cy="1.79349" rx="1.79439" ry="1.7944" transform="rotate(-180 195.206 1.79349)" fill="#91AD9E"/>
<ellipse cx="156.618" cy="190.206" rx="1.79439" ry="1.79439" transform="rotate(-180 156.618 190.206)" fill="#91AD9E"/>
<circle cx="156.618" cy="152.524" r="1.79439" transform="rotate(-180 156.618 152.524)" fill="#91AD9E"/>
<ellipse cx="156.618" cy="114.84" rx="1.79439" ry="1.7944" transform="rotate(-180 156.618 114.84)" fill="#91AD9E"/>
<circle cx="156.618" cy="77.1587" r="1.79439" transform="rotate(-180 156.618 77.1587)" fill="#91AD9E"/>
<ellipse cx="156.618" cy="39.4771" rx="1.79439" ry="1.7944" transform="rotate(-180 156.618 39.4771)" fill="#91AD9E"/>
<ellipse cx="156.618" cy="1.79544" rx="1.79439" ry="1.7944" transform="rotate(-180 156.618 1.79544)" fill="#91AD9E"/>
<ellipse cx="118.028" cy="190.206" rx="1.7944" ry="1.79439" transform="rotate(-180 118.028 190.206)" fill="#91AD9E"/>
<ellipse cx="118.028" cy="152.524" rx="1.7944" ry="1.79439" transform="rotate(-180 118.028 152.524)" fill="#91AD9E"/>
<circle cx="118.028" cy="114.84" r="1.7944" transform="rotate(-180 118.028 114.84)" fill="#91AD9E"/>
<ellipse cx="118.028" cy="77.1587" rx="1.7944" ry="1.79439" transform="rotate(-180 118.028 77.1587)" fill="#91AD9E"/>
<ellipse cx="118.028" cy="39.4771" rx="1.7944" ry="1.7944" transform="rotate(-180 118.028 39.4771)" fill="#91AD9E"/>
<ellipse cx="118.028" cy="1.79544" rx="1.7944" ry="1.7944" transform="rotate(-180 118.028 1.79544)" fill="#91AD9E"/>
<ellipse cx="79.44" cy="190.206" rx="1.79439" ry="1.79439" transform="rotate(-180 79.44 190.206)" fill="#91AD9E"/>
<circle cx="79.44" cy="152.524" r="1.79439" transform="rotate(-180 79.44 152.524)" fill="#91AD9E"/>
<ellipse cx="79.44" cy="114.84" rx="1.79439" ry="1.7944" transform="rotate(-180 79.44 114.84)" fill="#91AD9E"/>
<circle cx="79.44" cy="77.1587" r="1.79439" transform="rotate(-180 79.44 77.1587)" fill="#91AD9E"/>
<ellipse cx="79.44" cy="39.4771" rx="1.79439" ry="1.7944" transform="rotate(-180 79.44 39.4771)" fill="#91AD9E"/>
<ellipse cx="79.44" cy="1.79544" rx="1.79439" ry="1.7944" transform="rotate(-180 79.44 1.79544)" fill="#91AD9E"/>
<ellipse cx="40.8501" cy="190.206" rx="1.7944" ry="1.79439" transform="rotate(-180 40.8501 190.206)" fill="#91AD9E"/>
<ellipse cx="40.8501" cy="152.524" rx="1.7944" ry="1.79439" transform="rotate(-180 40.8501 152.524)" fill="#91AD9E"/>
<ellipse cx="40.8501" cy="114.84" rx="1.7944" ry="1.7944" transform="rotate(-180 40.8501 114.84)" fill="#91AD9E"/>
<ellipse cx="40.8501" cy="77.1587" rx="1.7944" ry="1.79439" transform="rotate(-180 40.8501 77.1587)" fill="#91AD9E"/>
<circle cx="40.8501" cy="39.4771" r="1.7944" transform="rotate(-180 40.8501 39.4771)" fill="#91AD9E"/>
<circle cx="40.8501" cy="1.79544" r="1.7944" transform="rotate(-180 40.8501 1.79544)" fill="#91AD9E"/>
<ellipse cx="2.26225" cy="190.206" rx="1.79439" ry="1.79439" transform="rotate(-180 2.26225 190.206)" fill="#91AD9E"/>
<ellipse cx="2.26225" cy="152.524" rx="1.79439" ry="1.79439" transform="rotate(-180 2.26225 152.524)" fill="#91AD9E"/>
<ellipse cx="2.26225" cy="114.84" rx="1.79439" ry="1.7944" transform="rotate(-180 2.26225 114.84)" fill="#91AD9E"/>
<ellipse cx="2.26225" cy="77.1587" rx="1.79439" ry="1.79439" transform="rotate(-180 2.26225 77.1587)" fill="#91AD9E"/>
<ellipse cx="2.26225" cy="39.4771" rx="1.79439" ry="1.7944" transform="rotate(-180 2.26225 39.4771)" fill="#91AD9E"/>
<ellipse cx="2.26225" cy="1.79544" rx="1.79439" ry="1.7944" transform="rotate(-180 2.26225 1.79544)" fill="#91AD9E"/>
</svg>
