<svg width="139" height="202" viewBox="0 0 139 202" fill="none" xmlns="http://www.w3.org/2000/svg">
<ellipse cx="20.9721" cy="11.7944" rx="1.7944" ry="1.79439" fill="#91AD9E"/>
<ellipse cx="20.9721" cy="49.476" rx="1.7944" ry="1.79439" fill="#91AD9E"/>
<circle cx="20.9721" cy="87.1587" r="1.7944" fill="#91AD9E"/>
<ellipse cx="20.9721" cy="124.841" rx="1.7944" ry="1.79439" fill="#91AD9E"/>
<ellipse cx="20.9721" cy="162.523" rx="1.7944" ry="1.7944" fill="#91AD9E"/>
<ellipse cx="20.9721" cy="200.206" rx="1.7944" ry="1.7944" fill="#91AD9E"/>
<ellipse cx="59.56" cy="11.7944" rx="1.79439" ry="1.79439" fill="#91AD9E"/>
<circle cx="59.56" cy="49.476" r="1.79439" fill="#91AD9E"/>
<ellipse cx="59.56" cy="87.1587" rx="1.79439" ry="1.7944" fill="#91AD9E"/>
<circle cx="59.56" cy="124.841" r="1.79439" fill="#91AD9E"/>
<ellipse cx="59.56" cy="162.523" rx="1.79439" ry="1.7944" fill="#91AD9E"/>
<ellipse cx="59.56" cy="200.206" rx="1.79439" ry="1.7944" fill="#91AD9E"/>
<ellipse cx="98.1499" cy="11.7944" rx="1.7944" ry="1.79439" fill="#91AD9E"/>
<ellipse cx="98.1499" cy="49.476" rx="1.7944" ry="1.79439" fill="#91AD9E"/>
<ellipse cx="98.1499" cy="87.1587" rx="1.7944" ry="1.7944" fill="#91AD9E"/>
<ellipse cx="98.1499" cy="124.841" rx="1.7944" ry="1.79439" fill="#91AD9E"/>
<circle cx="98.1499" cy="162.523" r="1.7944" fill="#91AD9E"/>
<circle cx="98.1499" cy="200.206" r="1.7944" fill="#91AD9E"/>
<ellipse cx="136.738" cy="11.7944" rx="1.79439" ry="1.79439" fill="#91AD9E"/>
<ellipse cx="136.738" cy="49.476" rx="1.79439" ry="1.79439" fill="#91AD9E"/>
<ellipse cx="136.738" cy="87.1587" rx="1.79439" ry="1.7944" fill="#91AD9E"/>
<ellipse cx="136.738" cy="124.841" rx="1.79439" ry="1.79439" fill="#91AD9E"/>
<ellipse cx="136.738" cy="162.523" rx="1.79439" ry="1.7944" fill="#91AD9E"/>
<ellipse cx="136.738" cy="200.206" rx="1.79439" ry="1.7944" fill="#91AD9E"/>
</svg>
