<svg width="197" height="192" viewBox="0 0 197 192" fill="none" xmlns="http://www.w3.org/2000/svg">
<circle cx="1.79439" cy="1.79439" r="1.79439" fill="white"/>
<ellipse cx="1.79439" cy="39.476" rx="1.79439" ry="1.79439" fill="white"/>
<ellipse cx="1.79439" cy="77.1596" rx="1.79439" ry="1.7944" fill="white"/>
<ellipse cx="1.79439" cy="114.841" rx="1.79439" ry="1.79439" fill="white"/>
<ellipse cx="1.79439" cy="152.523" rx="1.79439" ry="1.7944" fill="white"/>
<ellipse cx="1.79439" cy="190.207" rx="1.79439" ry="1.7944" fill="white"/>
<ellipse cx="40.3823" cy="1.79439" rx="1.79439" ry="1.79439" fill="white"/>
<circle cx="40.3823" cy="39.476" r="1.79439" fill="white"/>
<ellipse cx="40.3823" cy="77.1596" rx="1.79439" ry="1.7944" fill="white"/>
<circle cx="40.3823" cy="114.841" r="1.79439" fill="white"/>
<ellipse cx="40.3823" cy="152.523" rx="1.79439" ry="1.7944" fill="white"/>
<ellipse cx="40.3823" cy="190.205" rx="1.79439" ry="1.7944" fill="white"/>
<ellipse cx="78.9721" cy="1.79439" rx="1.7944" ry="1.79439" fill="white"/>
<ellipse cx="78.9721" cy="39.476" rx="1.7944" ry="1.79439" fill="white"/>
<circle cx="78.9721" cy="77.1596" r="1.7944" fill="white"/>
<ellipse cx="78.9721" cy="114.841" rx="1.7944" ry="1.79439" fill="white"/>
<ellipse cx="78.9721" cy="152.523" rx="1.7944" ry="1.7944" fill="white"/>
<ellipse cx="78.9721" cy="190.205" rx="1.7944" ry="1.7944" fill="white"/>
<ellipse cx="117.56" cy="1.79439" rx="1.79439" ry="1.79439" fill="white"/>
<circle cx="117.56" cy="39.476" r="1.79439" fill="white"/>
<ellipse cx="117.56" cy="77.1596" rx="1.79439" ry="1.7944" fill="white"/>
<circle cx="117.56" cy="114.841" r="1.79439" fill="white"/>
<ellipse cx="117.56" cy="152.523" rx="1.79439" ry="1.7944" fill="white"/>
<ellipse cx="117.56" cy="190.205" rx="1.79439" ry="1.7944" fill="white"/>
<ellipse cx="156.15" cy="1.79439" rx="1.7944" ry="1.79439" fill="white"/>
<ellipse cx="156.15" cy="39.476" rx="1.7944" ry="1.79439" fill="white"/>
<ellipse cx="156.15" cy="77.1596" rx="1.7944" ry="1.7944" fill="white"/>
<ellipse cx="156.15" cy="114.841" rx="1.7944" ry="1.79439" fill="white"/>
<circle cx="156.15" cy="152.523" r="1.7944" fill="white"/>
<circle cx="156.15" cy="190.205" r="1.7944" fill="white"/>
<ellipse cx="194.738" cy="1.79439" rx="1.79439" ry="1.79439" fill="white"/>
<ellipse cx="194.738" cy="39.476" rx="1.79439" ry="1.79439" fill="white"/>
<ellipse cx="194.738" cy="77.1596" rx="1.79439" ry="1.7944" fill="white"/>
<ellipse cx="194.738" cy="114.841" rx="1.79439" ry="1.79439" fill="white"/>
<ellipse cx="194.738" cy="152.523" rx="1.79439" ry="1.7944" fill="white"/>
<ellipse cx="194.738" cy="190.205" rx="1.79439" ry="1.7944" fill="white"/>
</svg>
