<svg width="371" height="197" viewBox="0 0 371 197" fill="none" xmlns="http://www.w3.org/2000/svg">
<circle cx="228.794" cy="195.206" r="1.79439" transform="rotate(-90 228.794 195.206)" fill="white"/>
<ellipse cx="266.476" cy="195.206" rx="1.79439" ry="1.79439" transform="rotate(-90 266.476 195.206)" fill="white"/>
<ellipse cx="304.16" cy="195.206" rx="1.79439" ry="1.7944" transform="rotate(-90 304.16 195.206)" fill="white"/>
<ellipse cx="341.841" cy="195.206" rx="1.79439" ry="1.79439" transform="rotate(-90 341.841 195.206)" fill="white"/>
<ellipse cx="228.794" cy="156.618" rx="1.79439" ry="1.79439" transform="rotate(-90 228.794 156.618)" fill="white"/>
<circle cx="266.476" cy="156.618" r="1.79439" transform="rotate(-90 266.476 156.618)" fill="white"/>
<ellipse cx="304.16" cy="156.618" rx="1.79439" ry="1.7944" transform="rotate(-90 304.16 156.618)" fill="white"/>
<circle cx="341.841" cy="156.618" r="1.79439" transform="rotate(-90 341.841 156.618)" fill="white"/>
<ellipse cx="228.794" cy="118.028" rx="1.7944" ry="1.79439" transform="rotate(-90 228.794 118.028)" fill="white"/>
<ellipse cx="266.476" cy="118.028" rx="1.7944" ry="1.79439" transform="rotate(-90 266.476 118.028)" fill="white"/>
<circle cx="304.16" cy="118.028" r="1.7944" transform="rotate(-90 304.16 118.028)" fill="white"/>
<ellipse cx="341.841" cy="118.028" rx="1.7944" ry="1.79439" transform="rotate(-90 341.841 118.028)" fill="white"/>
<ellipse cx="228.794" cy="79.44" rx="1.79439" ry="1.79439" transform="rotate(-90 228.794 79.44)" fill="white"/>
<circle cx="266.476" cy="79.44" r="1.79439" transform="rotate(-90 266.476 79.44)" fill="white"/>
<ellipse cx="304.16" cy="79.44" rx="1.79439" ry="1.7944" transform="rotate(-90 304.16 79.44)" fill="white"/>
<circle cx="341.841" cy="79.44" r="1.79439" transform="rotate(-90 341.841 79.44)" fill="white"/>
<ellipse cx="228.794" cy="40.8501" rx="1.7944" ry="1.79439" transform="rotate(-90 228.794 40.8501)" fill="white"/>
<ellipse cx="266.476" cy="40.8501" rx="1.7944" ry="1.79439" transform="rotate(-90 266.476 40.8501)" fill="white"/>
<ellipse cx="304.16" cy="40.8501" rx="1.7944" ry="1.7944" transform="rotate(-90 304.16 40.8501)" fill="white"/>
<ellipse cx="341.841" cy="40.8501" rx="1.7944" ry="1.79439" transform="rotate(-90 341.841 40.8501)" fill="white"/>
<ellipse cx="228.794" cy="2.26225" rx="1.79439" ry="1.79439" transform="rotate(-90 228.794 2.26225)" fill="white"/>
<ellipse cx="266.476" cy="2.26225" rx="1.79439" ry="1.79439" transform="rotate(-90 266.476 2.26225)" fill="white"/>
<ellipse cx="304.16" cy="2.26225" rx="1.79439" ry="1.7944" transform="rotate(-90 304.16 2.26225)" fill="white"/>
<ellipse cx="341.841" cy="2.26225" rx="1.79439" ry="1.79439" transform="rotate(-90 341.841 2.26225)" fill="white"/>
<circle cx="1.79439" cy="195.206" r="1.79439" transform="rotate(-90 1.79439 195.206)" fill="white"/>
<ellipse cx="39.476" cy="195.206" rx="1.79439" ry="1.79439" transform="rotate(-90 39.476 195.206)" fill="white"/>
<ellipse cx="77.1596" cy="195.206" rx="1.79439" ry="1.7944" transform="rotate(-90 77.1596 195.206)" fill="white"/>
<ellipse cx="114.841" cy="195.206" rx="1.79439" ry="1.79439" transform="rotate(-90 114.841 195.206)" fill="white"/>
<ellipse cx="152.523" cy="195.206" rx="1.79439" ry="1.7944" transform="rotate(-90 152.523 195.206)" fill="white"/>
<ellipse cx="190.207" cy="195.206" rx="1.79439" ry="1.7944" transform="rotate(-90 190.207 195.206)" fill="white"/>
<ellipse cx="1.79439" cy="156.618" rx="1.79439" ry="1.79439" transform="rotate(-90 1.79439 156.618)" fill="white"/>
<circle cx="39.476" cy="156.618" r="1.79439" transform="rotate(-90 39.476 156.618)" fill="white"/>
<ellipse cx="77.1596" cy="156.618" rx="1.79439" ry="1.7944" transform="rotate(-90 77.1596 156.618)" fill="white"/>
<circle cx="114.841" cy="156.618" r="1.79439" transform="rotate(-90 114.841 156.618)" fill="white"/>
<ellipse cx="152.523" cy="156.618" rx="1.79439" ry="1.7944" transform="rotate(-90 152.523 156.618)" fill="white"/>
<ellipse cx="190.205" cy="156.618" rx="1.79439" ry="1.7944" transform="rotate(-90 190.205 156.618)" fill="white"/>
<ellipse cx="1.79439" cy="118.028" rx="1.7944" ry="1.79439" transform="rotate(-90 1.79439 118.028)" fill="white"/>
<ellipse cx="39.476" cy="118.028" rx="1.7944" ry="1.79439" transform="rotate(-90 39.476 118.028)" fill="white"/>
<circle cx="77.1596" cy="118.028" r="1.7944" transform="rotate(-90 77.1596 118.028)" fill="white"/>
<ellipse cx="114.841" cy="118.028" rx="1.7944" ry="1.79439" transform="rotate(-90 114.841 118.028)" fill="white"/>
<ellipse cx="152.523" cy="118.028" rx="1.7944" ry="1.7944" transform="rotate(-90 152.523 118.028)" fill="white"/>
<ellipse cx="190.205" cy="118.028" rx="1.7944" ry="1.7944" transform="rotate(-90 190.205 118.028)" fill="white"/>
<ellipse cx="1.79439" cy="79.44" rx="1.79439" ry="1.79439" transform="rotate(-90 1.79439 79.44)" fill="white"/>
<circle cx="39.476" cy="79.44" r="1.79439" transform="rotate(-90 39.476 79.44)" fill="white"/>
<ellipse cx="77.1596" cy="79.44" rx="1.79439" ry="1.7944" transform="rotate(-90 77.1596 79.44)" fill="white"/>
<circle cx="114.841" cy="79.44" r="1.79439" transform="rotate(-90 114.841 79.44)" fill="white"/>
<ellipse cx="152.523" cy="79.44" rx="1.79439" ry="1.7944" transform="rotate(-90 152.523 79.44)" fill="white"/>
<ellipse cx="190.205" cy="79.44" rx="1.79439" ry="1.7944" transform="rotate(-90 190.205 79.44)" fill="white"/>
<ellipse cx="1.79439" cy="40.8501" rx="1.7944" ry="1.79439" transform="rotate(-90 1.79439 40.8501)" fill="white"/>
<ellipse cx="39.476" cy="40.8501" rx="1.7944" ry="1.79439" transform="rotate(-90 39.476 40.8501)" fill="white"/>
<ellipse cx="77.1596" cy="40.8501" rx="1.7944" ry="1.7944" transform="rotate(-90 77.1596 40.8501)" fill="white"/>
<ellipse cx="114.841" cy="40.8501" rx="1.7944" ry="1.79439" transform="rotate(-90 114.841 40.8501)" fill="white"/>
<circle cx="152.523" cy="40.8501" r="1.7944" transform="rotate(-90 152.523 40.8501)" fill="white"/>
<circle cx="190.205" cy="40.8501" r="1.7944" transform="rotate(-90 190.205 40.8501)" fill="white"/>
<ellipse cx="1.79439" cy="2.26225" rx="1.79439" ry="1.79439" transform="rotate(-90 1.79439 2.26225)" fill="white"/>
<ellipse cx="39.476" cy="2.26225" rx="1.79439" ry="1.79439" transform="rotate(-90 39.476 2.26225)" fill="white"/>
<ellipse cx="77.1596" cy="2.26225" rx="1.79439" ry="1.7944" transform="rotate(-90 77.1596 2.26225)" fill="white"/>
<ellipse cx="114.841" cy="2.26225" rx="1.79439" ry="1.79439" transform="rotate(-90 114.841 2.26225)" fill="white"/>
<ellipse cx="152.523" cy="2.26225" rx="1.79439" ry="1.7944" transform="rotate(-90 152.523 2.26225)" fill="white"/>
<ellipse cx="190.205" cy="2.26225" rx="1.79439" ry="1.7944" transform="rotate(-90 190.205 2.26225)" fill="white"/>
</svg>
